# xmcd
#
# Track frame offsets:
#	150
#	17144
#	33701
#	49612
#	64843
#	74374
#	90804
#	108460
#	123413
#	145602
#	159574
#	178301
#	193087
#
# Disc length: 2755 seconds
#
# Revision: 0
# Processed by: cddbd v1.4PL0 Copyright (c) Steve Scherf et al.
# Submitted via: EasyCDDAExtractor 4.6.0.1
#
DISCID=b40ac10d
DTITLE=4G
DYEAR=2000
DGENRE=Blues/Jazz
TTITLE0=Girls like it
TTITLE1=I ly av månen
TTITLE2=Running
TTITLE3=Simple Waltz
TTITLE4=Dancing with tears in my eyes
TTITLE5=Ørkenrev
TTITLE6=Roneo
TTITLE7=Blues can be played in many styles, here is one
TTITLE8=Tito's theme
TTITLE9=The snake
TTITLE10=Nylon
TTITLE11=Highlife
TTITLE12=Vingevals
EXTD=
EXTT0=
EXTT1=
EXTT2=
EXTT3=
EXTT4=
EXTT5=
EXTT6=
EXTT7=
EXTT8=
EXTT9=
EXTT10=
EXTT11=
EXTT12=
PLAYORDER=
